<?xml version="1.0" encoding="iso-8859-1"?>
<!-- Generator: Adobe Illustrator 25.4.1, SVG Export Plug-In . SVG Version: 6.00 Build 0)  -->
<svg version="1.1" baseProfile="basic" id="Layer_1"
	 xmlns="http://www.w3.org/2000/svg" xmlns:xlink="http://www.w3.org/1999/xlink" x="0px" y="0px" viewBox="0 0 100 100"
	 xml:space="preserve">
<path style="fill:none;stroke:#000000;stroke-width:4;stroke-linecap:round;stroke-linejoin:round;stroke-miterlimit:10;" d="
	M48.529,29.507c-13.321,0.495-16.217,11.137-17.294,19.764c-1.076,8.628-2.47,14.824,1.021,29.453
	C34.639,88.706,43.983,91.061,51,91.163c9.369-0.027,17.964-9.127,18.078-18.863c-0.318-5.35,1.806-19.029,0.731-24.789
	C68.294,39.389,60.527,29.061,48.529,29.507z"/>
<line style="fill:none;stroke:#000000;stroke-width:2;stroke-linecap:round;stroke-linejoin:round;stroke-miterlimit:10;" x1="35" y1="36.792" x2="37" y2="39"/>
<line style="fill:none;stroke:#000000;stroke-width:2;stroke-linecap:round;stroke-linejoin:round;stroke-miterlimit:10;" x1="65" y1="82.389" x2="62" y2="79.027"/>
<line style="fill:none;stroke:#000000;stroke-width:2;stroke-linecap:round;stroke-linejoin:round;stroke-miterlimit:10;" x1="42.284" y1="89.699" x2="42.679" y2="85.529"/>
<line style="fill:none;stroke:#000000;stroke-width:2;stroke-linecap:round;stroke-linejoin:round;stroke-miterlimit:10;" x1="37" y1="86.703" x2="40" y2="83.13"/>
<line style="fill:none;stroke:#000000;stroke-width:2;stroke-linecap:round;stroke-linejoin:round;stroke-miterlimit:10;" x1="34" y1="83.13" x2="37" y2="81.389"/>
<line style="fill:none;stroke:#000000;stroke-width:2;stroke-linecap:round;stroke-linejoin:round;stroke-miterlimit:10;" x1="34" y1="17" x2="40" y2="22"/>
<path style="fill:none;stroke:#000000;stroke-width:4;stroke-linecap:round;stroke-linejoin:round;stroke-miterlimit:10;" d="
	M30.03,81.389h-8.677l2.471-10.507l-9.883-4.316c1.108-3.317,3.322-6.616,7.412-9.883L9,49.271
	c4.233-4.336,9.174-5.983,14.824-4.941c-1.079-4.881-4.297-9.161-8.412-17.764c5.594-0.311,12.248-1.882,15.618,1.927
	C32.523,24.782,33.659,19.08,34.011,9c5.933,1.812,14.191,6.204,15.906,10.624C52.579,15.233,59.671,11.532,65.518,9l4.597,17.493
	C74,24,79.049,23.021,85.588,24.566c-5.973,7.537-8.764,12.969-9.882,17.294c7.656-1.946,13.481-1.21,17.294,2.47
	c-6.546,3.461-11.462,7.589-14.824,12.353c5.377,1.76,8.806,4.955,9.883,9.883l-12.353,4.316l2.47,10.507l-8.061-2.471"/>
<line style="fill:none;stroke:#000000;stroke-width:2;stroke-linecap:round;stroke-linejoin:round;stroke-miterlimit:10;" x1="16.276" y1="53.637" x2="20" y2="52.028"/>
<path style="fill:none;stroke:#000000;stroke-width:2;stroke-linecap:round;stroke-linejoin:round;stroke-miterlimit:10;" d="
	M36.599,48.901c0,0,13.238,6.54,25.999,0.706"/>
<path style="fill:none;stroke:#000000;stroke-width:2;stroke-linecap:round;stroke-linejoin:round;stroke-miterlimit:10;" d="
	M42.043,50.988c0,0-6.394-0.234-5.319,6.574c1.075,6.807,10.396,4.446,10.827-0.157C47.982,52.803,42.043,50.988,42.043,50.988z"/>
<path style="fill:none;stroke:#000000;stroke-width:2;stroke-linecap:round;stroke-linejoin:round;stroke-miterlimit:10;" d="
	M57.56,51.347c0,0,6.385-0.419,5.508,6.417c-0.878,6.836-10.263,4.745-10.827,0.157C51.677,53.333,57.56,51.347,57.56,51.347z"/>
<polyline style="fill:none;stroke:#000000;stroke-width:2;stroke-linecap:round;stroke-linejoin:round;stroke-miterlimit:10;" points="
	52.937,64.404 54.02,72.53 47.573,71.448 "/>
<path style="fill:none;stroke:#000000;stroke-width:2;stroke-linecap:round;stroke-linejoin:round;stroke-miterlimit:10;" d="
	M42.109,79.027c0,0,6.377-4.019,15.159-1.083"/>
<path style="fill:none;stroke:#000000;stroke-width:2;stroke-linecap:round;stroke-linejoin:round;stroke-miterlimit:10;" d="
	M46.358,77.944c0,0,0.708,7.824,2.165,7.58c1.458-0.244,2.166-4.135,2.166-4.135s3.219-1.09,2.514-4.518"/>
<path style="fill-rule:evenodd;clip-rule:evenodd;" d="M41.142,56.614c0.63,0,1.142,0.511,1.142,1.142
	c0,0.63-0.512,1.142-1.142,1.142S40,58.386,40,57.756C40,57.125,40.512,56.614,41.142,56.614"/>
<path style="fill-rule:evenodd;clip-rule:evenodd;" d="M58.562,53.637c0.631,0,1.142,0.512,1.142,1.142
	c0,0.631-0.511,1.142-1.142,1.142c-0.63,0-1.142-0.511-1.142-1.142C57.42,54.149,57.932,53.637,58.562,53.637"/>
<line style="fill:none;stroke:#000000;stroke-width:2;stroke-linecap:round;stroke-linejoin:round;stroke-miterlimit:10;" x1="67" y1="14" x2="63" y2="17"/>
<line style="fill:none;stroke:#000000;stroke-width:2;stroke-linecap:round;stroke-linejoin:round;stroke-miterlimit:10;" x1="68.756" y1="18" x2="62" y2="22"/>
<line style="fill:none;stroke:#000000;stroke-width:2;stroke-linecap:round;stroke-linejoin:round;stroke-miterlimit:10;" x1="68.756" y1="22" x2="65" y2="25"/>
<line style="fill:none;stroke:#000000;stroke-width:2;stroke-linecap:round;stroke-linejoin:round;stroke-miterlimit:10;" x1="33" y1="21" x2="37" y2="28.151"/>
<line style="fill:none;stroke:#000000;stroke-width:2;stroke-linecap:round;stroke-linejoin:round;stroke-miterlimit:10;" x1="20" y1="35" x2="25" y2="35"/>
<line style="fill:none;stroke:#000000;stroke-width:2;stroke-linecap:round;stroke-linejoin:round;stroke-miterlimit:10;" x1="22" y1="39" x2="26" y2="39"/>
<line style="fill:none;stroke:#000000;stroke-width:2;stroke-linecap:round;stroke-linejoin:round;stroke-miterlimit:10;" x1="20" y1="69" x2="23" y2="65"/>
<line style="fill:none;stroke:#000000;stroke-width:2;stroke-linecap:round;stroke-linejoin:round;stroke-miterlimit:10;" x1="81" y1="52" x2="77" y2="50"/>
<line style="fill:none;stroke:#000000;stroke-width:2;stroke-linecap:round;stroke-linejoin:round;stroke-miterlimit:10;" x1="84" y1="49" x2="80" y2="47"/>
<line style="fill:none;stroke:#000000;stroke-width:2;stroke-linecap:round;stroke-linejoin:round;stroke-miterlimit:10;" x1="81" y1="32" x2="74" y2="32"/>
<line style="fill:none;stroke:#000000;stroke-width:2;stroke-linecap:round;stroke-linejoin:round;stroke-miterlimit:10;" x1="31.244" y1="73" x2="35" y2="72"/>
<line style="fill:none;stroke:#000000;stroke-width:2;stroke-linecap:round;stroke-linejoin:round;stroke-miterlimit:10;" x1="31.244" y1="77" x2="36" y2="76"/>
<line style="fill:none;stroke:#000000;stroke-width:2;stroke-linecap:round;stroke-linejoin:round;stroke-miterlimit:10;" x1="63" y1="86" x2="60" y2="84"/>
<line style="fill:none;stroke:#000000;stroke-width:2;stroke-linecap:round;stroke-linejoin:round;stroke-miterlimit:10;" x1="68.756" y1="77" x2="64" y2="75"/>
<line style="fill:none;stroke:#000000;stroke-width:2;stroke-linecap:round;stroke-linejoin:round;stroke-miterlimit:10;" x1="68.756" y1="70" x2="65" y2="67"/>
<line style="fill:none;stroke:#000000;stroke-width:2;stroke-linecap:round;stroke-linejoin:round;stroke-miterlimit:10;" x1="38" y1="34" x2="41" y2="37"/>
<line style="fill:none;stroke:#000000;stroke-width:2;stroke-linecap:round;stroke-linejoin:round;stroke-miterlimit:10;" x1="43" y1="31" x2="45" y2="35"/>
<path style="fill-rule:evenodd;clip-rule:evenodd;" d="M36.142,65.112c0.63,0,1.142,0.511,1.142,1.142
	c0,0.63-0.512,1.142-1.142,1.142S35,66.884,35,66.254C35,65.623,35.512,65.112,36.142,65.112"/>
<path style="fill-rule:evenodd;clip-rule:evenodd;" d="M68.142,31.716c0.63,0,1.142,0.512,1.142,1.142
	c0,0.63-0.512,1.142-1.142,1.142S67,33.488,67,32.858C67,32.228,67.512,31.716,68.142,31.716"/>
<path style="fill-rule:evenodd;clip-rule:evenodd;" d="M60.846,43c0.631,0,1.142,0.512,1.142,1.142c0,0.63-0.511,1.142-1.142,1.142
	c-0.63,0-1.142-0.512-1.142-1.142C59.704,43.512,60.216,43,60.846,43"/>
</svg>